<mxfile host="app.diagrams.net" modified="2023-10-20T02:28:37.406Z" agent="Mozilla/5.0 (Windows NT 10.0; Win64; x64) AppleWebKit/537.36 (KHTML, like Gecko) Chrome/118.0.0.0 Safari/537.36" etag="nWpTWYD2UxYAQBiEjGXH" version="22.0.4" type="github">
  <diagram name="Page-1" id="efa7a0a1-bf9b-a30e-e6df-94a7791c09e9">
    <mxGraphModel dx="2310" dy="-689" grid="1" gridSize="10" guides="1" tooltips="1" connect="1" arrows="1" fold="1" page="1" pageScale="1" pageWidth="826" pageHeight="1169" background="none" math="0" shadow="0">
      <root>
        <mxCell id="0" />
        <mxCell id="1" parent="0" />
        <mxCell id="-WjWsvHY24xJDagIEpUm-118" style="edgeStyle=orthogonalEdgeStyle;rounded=0;orthogonalLoop=1;jettySize=auto;html=1;entryX=0.5;entryY=0;entryDx=0;entryDy=0;" parent="1" source="-WjWsvHY24xJDagIEpUm-115" target="-WjWsvHY24xJDagIEpUm-117" edge="1">
          <mxGeometry relative="1" as="geometry" />
        </mxCell>
        <mxCell id="-WjWsvHY24xJDagIEpUm-120" value="extends" style="edgeLabel;html=1;align=center;verticalAlign=middle;resizable=0;points=[];" parent="-WjWsvHY24xJDagIEpUm-118" vertex="1" connectable="0">
          <mxGeometry x="-0.1217" y="-3" relative="1" as="geometry">
            <mxPoint x="3" y="-12" as="offset" />
          </mxGeometry>
        </mxCell>
        <mxCell id="-WjWsvHY24xJDagIEpUm-115" value="&lt;p style=&quot;margin: 0px; margin-top: 4px; text-align: center; text-decoration: underline;&quot;&gt;&lt;b style=&quot;background-color: initial;&quot;&gt;&lt;u&gt;NotificationListenerService&lt;/u&gt;&lt;/b&gt;&lt;/p&gt;&lt;hr&gt;&lt;p style=&quot;margin: 0px; margin-left: 8px;&quot;&gt;onNotificationPosted()&lt;/p&gt;&lt;p style=&quot;margin: 0px; margin-left: 8px;&quot;&gt;onNotificationRemoved()&lt;/p&gt;&lt;p style=&quot;margin: 0px; margin-left: 8px;&quot;&gt;cancelAllNotifications()&lt;/p&gt;&lt;p style=&quot;margin: 0px; margin-left: 8px;&quot;&gt;cancelNotifications()&lt;/p&gt;&lt;p style=&quot;margin: 0px; margin-left: 8px;&quot;&gt;...&lt;/p&gt;" style="verticalAlign=top;align=left;overflow=fill;fontSize=12;fontFamily=Helvetica;html=1;strokeColor=#003366;shadow=1;fillColor=#D4E1F5;fontColor=#003366" parent="1" vertex="1">
          <mxGeometry x="-130" y="1320" width="210" height="110" as="geometry" />
        </mxCell>
        <mxCell id="-WjWsvHY24xJDagIEpUm-182" style="edgeStyle=orthogonalEdgeStyle;rounded=0;orthogonalLoop=1;jettySize=auto;html=1;entryX=0;entryY=0.5;entryDx=0;entryDy=0;" parent="1" target="-WjWsvHY24xJDagIEpUm-117" edge="1">
          <mxGeometry relative="1" as="geometry">
            <Array as="points">
              <mxPoint x="-270" y="1770" />
              <mxPoint x="-105" y="1770" />
            </Array>
            <mxPoint x="-270" y="1582.5" as="sourcePoint" />
            <mxPoint x="-125" y="1775" as="targetPoint" />
          </mxGeometry>
        </mxCell>
        <mxCell id="-WjWsvHY24xJDagIEpUm-183" value="implements" style="edgeLabel;html=1;align=center;verticalAlign=middle;resizable=0;points=[];" parent="-WjWsvHY24xJDagIEpUm-182" vertex="1" connectable="0">
          <mxGeometry x="0.4925" y="4" relative="1" as="geometry">
            <mxPoint as="offset" />
          </mxGeometry>
        </mxCell>
        <mxCell id="-WjWsvHY24xJDagIEpUm-116" value="&lt;p style=&quot;margin: 0px; margin-top: 4px; text-align: center; text-decoration: underline;&quot;&gt;&lt;b style=&quot;background-color: initial;&quot;&gt;&lt;u&gt;INotificationCancel&lt;/u&gt;&lt;/b&gt;&lt;/p&gt;&lt;hr&gt;&lt;p style=&quot;margin: 0px; margin-left: 8px;&quot;&gt;cancelNotifications()&lt;/p&gt;&lt;p style=&quot;margin: 0px; margin-left: 8px;&quot;&gt;cancelAll()&lt;br&gt;&lt;/p&gt;" style="verticalAlign=top;align=left;overflow=fill;fontSize=12;fontFamily=Helvetica;html=1;strokeColor=#003366;shadow=1;fillColor=#D4E1F5;fontColor=#003366" parent="1" vertex="1">
          <mxGeometry x="-340" y="1512.5" width="160" height="70" as="geometry" />
        </mxCell>
        <mxCell id="-WjWsvHY24xJDagIEpUm-117" value="&lt;p style=&quot;margin: 0px; margin-top: 4px; text-align: center; text-decoration: underline;&quot;&gt;&lt;b style=&quot;background-color: initial;&quot;&gt;&lt;u&gt;NotificationListener&lt;/u&gt;&lt;/b&gt;&lt;/p&gt;&lt;hr&gt;&lt;p style=&quot;margin: 0px; margin-left: 8px;&quot;&gt;onNotificationPosted()&lt;/p&gt;&lt;p style=&quot;margin: 0px; margin-left: 8px;&quot;&gt;onNotificationRemoved()&lt;/p&gt;&lt;p style=&quot;margin: 0px; margin-left: 8px;&quot;&gt;onListenerConnected()&lt;br&gt;&lt;/p&gt;" style="verticalAlign=top;align=left;overflow=fill;fontSize=12;fontFamily=Helvetica;html=1;strokeColor=#003366;shadow=1;fillColor=#D4E1F5;fontColor=#003366" parent="1" vertex="1">
          <mxGeometry x="-105" y="1655" width="160" height="240" as="geometry" />
        </mxCell>
        <mxCell id="-WjWsvHY24xJDagIEpUm-123" style="edgeStyle=orthogonalEdgeStyle;rounded=0;orthogonalLoop=1;jettySize=auto;html=1;entryX=1;entryY=0.5;entryDx=0;entryDy=0;" parent="1" source="-WjWsvHY24xJDagIEpUm-122" target="-WjWsvHY24xJDagIEpUm-115" edge="1">
          <mxGeometry relative="1" as="geometry">
            <Array as="points">
              <mxPoint x="370" y="1375" />
            </Array>
          </mxGeometry>
        </mxCell>
        <mxCell id="-WjWsvHY24xJDagIEpUm-149" style="edgeStyle=orthogonalEdgeStyle;rounded=0;orthogonalLoop=1;jettySize=auto;html=1;entryX=0.5;entryY=0;entryDx=0;entryDy=0;" parent="1" source="-WjWsvHY24xJDagIEpUm-122" target="-WjWsvHY24xJDagIEpUm-148" edge="1">
          <mxGeometry relative="1" as="geometry" />
        </mxCell>
        <mxCell id="-WjWsvHY24xJDagIEpUm-171" value="extends" style="edgeLabel;html=1;align=center;verticalAlign=middle;resizable=0;points=[];" parent="-WjWsvHY24xJDagIEpUm-149" vertex="1" connectable="0">
          <mxGeometry x="-0.8382" y="2" relative="1" as="geometry">
            <mxPoint as="offset" />
          </mxGeometry>
        </mxCell>
        <mxCell id="-WjWsvHY24xJDagIEpUm-122" value="&lt;p style=&quot;margin: 0px; margin-top: 4px; text-align: center; text-decoration: underline;&quot;&gt;&lt;b&gt;Service&lt;/b&gt;&lt;/p&gt;&lt;hr&gt;&lt;p style=&quot;margin: 0px; margin-left: 8px;&quot;&gt;...&lt;/p&gt;" style="verticalAlign=top;align=left;overflow=fill;fontSize=12;fontFamily=Helvetica;html=1;strokeColor=#003366;shadow=1;fillColor=#D4E1F5;fontColor=#003366" parent="1" vertex="1">
          <mxGeometry x="290" y="1250" width="160" height="50" as="geometry" />
        </mxCell>
        <mxCell id="-WjWsvHY24xJDagIEpUm-128" value="" style="endArrow=none;dashed=1;html=1;dashPattern=1 3;strokeWidth=2;rounded=0;" parent="1" edge="1">
          <mxGeometry width="50" height="50" relative="1" as="geometry">
            <mxPoint x="-340" y="1490" as="sourcePoint" />
            <mxPoint x="1641.904761904762" y="1490" as="targetPoint" />
          </mxGeometry>
        </mxCell>
        <mxCell id="-WjWsvHY24xJDagIEpUm-129" value="&lt;p style=&quot;margin: 4px 0px 0px; text-align: center;&quot;&gt;&lt;b&gt;&lt;u&gt;NotificationListenHelper&lt;/u&gt;&lt;/b&gt;&lt;br&gt;&lt;/p&gt;&lt;hr&gt;&lt;p style=&quot;margin: 0px; margin-left: 8px;&quot;&gt;addCancelListener()&lt;/p&gt;&lt;p style=&quot;margin: 0px; margin-left: 8px;&quot;&gt;removeCancelListener()&lt;/p&gt;&lt;p style=&quot;margin: 0px; margin-left: 8px;&quot;&gt;cancelNotifications()&lt;br&gt;&lt;/p&gt;&lt;p style=&quot;margin: 0px; margin-left: 8px;&quot;&gt;cancelAll()&lt;/p&gt;&lt;p style=&quot;margin: 0px; margin-left: 8px;&quot;&gt;addWindowListener()&lt;/p&gt;&lt;p style=&quot;margin: 0px; margin-left: 8px;&quot;&gt;removeWindowListener()&lt;/p&gt;&lt;p style=&quot;margin: 0px; margin-left: 8px;&quot;&gt;windowStateUpdate()&lt;/p&gt;&lt;p style=&quot;margin: 0px; margin-left: 8px;&quot;&gt;closeWindow()&lt;/p&gt;&lt;p style=&quot;margin: 0px; margin-left: 8px;&quot;&gt;addNotifyListener()&lt;/p&gt;&lt;p style=&quot;margin: 0px; margin-left: 8px;&quot;&gt;removeNotifyListener()&lt;/p&gt;&lt;p style=&quot;margin: 0px; margin-left: 8px;&quot;&gt;notifyEvent()&lt;/p&gt;&lt;p style=&quot;margin: 0px; margin-left: 8px;&quot;&gt;notifyViewState()&lt;/p&gt;" style="verticalAlign=top;align=left;overflow=fill;fontSize=12;fontFamily=Helvetica;html=1;strokeColor=#003366;shadow=1;fillColor=#D4E1F5;fontColor=#003366" parent="1" vertex="1">
          <mxGeometry x="-130" y="2050" width="210" height="220" as="geometry" />
        </mxCell>
        <mxCell id="-WjWsvHY24xJDagIEpUm-130" value="&lt;p style=&quot;margin: 4px 0px 0px; text-align: center;&quot;&gt;&lt;b&gt;&lt;u&gt;NotificationRecordManager&lt;/u&gt;&lt;/b&gt;&lt;br&gt;&lt;/p&gt;&lt;hr&gt;&lt;p style=&quot;margin: 0px; margin-left: 8px;&quot;&gt;insertList()&lt;/p&gt;&lt;p style=&quot;margin: 0px; margin-left: 8px;&quot;&gt;recordNotifications()&lt;/p&gt;&lt;p style=&quot;margin: 0px; margin-left: 8px;&quot;&gt;deleteNotifications()&lt;/p&gt;&lt;p style=&quot;margin: 0px; margin-left: 8px;&quot;&gt;deleteAllNotifications()&lt;/p&gt;&lt;p style=&quot;margin: 0px; margin-left: 8px;&quot;&gt;deleteByClick()&lt;/p&gt;&lt;p style=&quot;margin: 0px; margin-left: 8px;&quot;&gt;pullNotifications()&lt;/p&gt;&lt;p style=&quot;margin: 0px; margin-left: 8px;&quot;&gt;rankingUpdate()&lt;/p&gt;&lt;p style=&quot;margin: 0px; margin-left: 8px;&quot;&gt;getListSizeFromPkg()&lt;/p&gt;&lt;p style=&quot;margin: 0px; margin-left: 8px;&quot;&gt;ranking()&lt;/p&gt;&lt;p style=&quot;margin: 0px; margin-left: 8px;&quot;&gt;record()&lt;/p&gt;&lt;p style=&quot;margin: 0px; margin-left: 8px;&quot;&gt;getSbn()&lt;/p&gt;&lt;p style=&quot;margin: 0px; margin-left: 8px;&quot;&gt;insertNtfs()&lt;/p&gt;&lt;p style=&quot;margin: 0px; margin-left: 8px;&quot;&gt;delete()&lt;/p&gt;&lt;p style=&quot;margin: 0px; margin-left: 8px;&quot;&gt;deleteAll()&lt;/p&gt;&lt;p style=&quot;margin: 0px; margin-left: 8px;&quot;&gt;deleteFromPackage()&lt;/p&gt;&lt;p style=&quot;margin: 0px; margin-left: 8px;&quot;&gt;getNotificationData()&lt;/p&gt;&lt;p style=&quot;margin: 0px; margin-left: 8px;&quot;&gt;getFlag()&lt;/p&gt;" style="verticalAlign=top;align=left;overflow=fill;fontSize=12;fontFamily=Helvetica;html=1;strokeColor=#003366;shadow=1;fillColor=#D4E1F5;fontColor=#003366" parent="1" vertex="1">
          <mxGeometry x="-460" y="2020" width="210" height="290" as="geometry" />
        </mxCell>
        <mxCell id="-WjWsvHY24xJDagIEpUm-187" style="edgeStyle=orthogonalEdgeStyle;rounded=0;orthogonalLoop=1;jettySize=auto;html=1;entryX=0.5;entryY=0;entryDx=0;entryDy=0;" parent="1" source="-WjWsvHY24xJDagIEpUm-131" target="-WjWsvHY24xJDagIEpUm-132" edge="1">
          <mxGeometry relative="1" as="geometry">
            <Array as="points">
              <mxPoint x="1230" y="1490" />
              <mxPoint x="1035" y="1490" />
            </Array>
          </mxGeometry>
        </mxCell>
        <mxCell id="-WjWsvHY24xJDagIEpUm-188" value="extends" style="edgeLabel;html=1;align=center;verticalAlign=middle;resizable=0;points=[];" parent="-WjWsvHY24xJDagIEpUm-187" vertex="1" connectable="0">
          <mxGeometry x="-0.7003" relative="1" as="geometry">
            <mxPoint as="offset" />
          </mxGeometry>
        </mxCell>
        <mxCell id="-WjWsvHY24xJDagIEpUm-192" style="edgeStyle=orthogonalEdgeStyle;rounded=0;orthogonalLoop=1;jettySize=auto;html=1;entryX=0.5;entryY=0;entryDx=0;entryDy=0;" parent="1" source="-WjWsvHY24xJDagIEpUm-131" target="-WjWsvHY24xJDagIEpUm-139" edge="1">
          <mxGeometry relative="1" as="geometry" />
        </mxCell>
        <mxCell id="-WjWsvHY24xJDagIEpUm-193" style="edgeStyle=orthogonalEdgeStyle;rounded=0;orthogonalLoop=1;jettySize=auto;html=1;entryX=0.5;entryY=0;entryDx=0;entryDy=0;" parent="1" source="-WjWsvHY24xJDagIEpUm-131" target="-WjWsvHY24xJDagIEpUm-145" edge="1">
          <mxGeometry relative="1" as="geometry">
            <Array as="points">
              <mxPoint x="1230" y="1490" />
              <mxPoint x="1415" y="1490" />
            </Array>
          </mxGeometry>
        </mxCell>
        <mxCell id="-WjWsvHY24xJDagIEpUm-131" value="&lt;p style=&quot;margin: 0px; margin-top: 4px; text-align: center; text-decoration: underline;&quot;&gt;&lt;b&gt;BroadcastReceiver&lt;/b&gt;&lt;/p&gt;&lt;hr&gt;&lt;p style=&quot;margin: 0px; margin-left: 8px;&quot;&gt;...&lt;/p&gt;" style="verticalAlign=top;align=left;overflow=fill;fontSize=12;fontFamily=Helvetica;html=1;strokeColor=#003366;shadow=1;fillColor=#D4E1F5;fontColor=#003366" parent="1" vertex="1">
          <mxGeometry x="1150" y="1320" width="160" height="50" as="geometry" />
        </mxCell>
        <mxCell id="-WjWsvHY24xJDagIEpUm-132" value="&lt;p style=&quot;margin: 4px 0px 0px; text-align: center;&quot;&gt;&lt;b&gt;&lt;u&gt;WindowReceiver&lt;/u&gt;&lt;/b&gt;&lt;/p&gt;&lt;hr&gt;&lt;p style=&quot;margin: 0px; margin-left: 8px;&quot;&gt;...&lt;/p&gt;" style="verticalAlign=top;align=left;overflow=fill;fontSize=12;fontFamily=Helvetica;html=1;strokeColor=#003366;shadow=1;fillColor=#D4E1F5;fontColor=#003366" parent="1" vertex="1">
          <mxGeometry x="970" y="1594" width="130" height="56" as="geometry" />
        </mxCell>
        <mxCell id="-WjWsvHY24xJDagIEpUm-139" value="&lt;p style=&quot;margin: 4px 0px 0px; text-align: center;&quot;&gt;&lt;b&gt;&lt;u&gt;StartEventReceiver&lt;/u&gt;&lt;/b&gt;&lt;br&gt;&lt;/p&gt;&lt;hr&gt;&lt;p style=&quot;margin: 0px; margin-left: 8px;&quot;&gt;...&lt;/p&gt;" style="verticalAlign=top;align=left;overflow=fill;fontSize=12;fontFamily=Helvetica;html=1;strokeColor=#003366;shadow=1;fillColor=#D4E1F5;fontColor=#003366" parent="1" vertex="1">
          <mxGeometry x="1155" y="1594" width="150" height="56" as="geometry" />
        </mxCell>
        <mxCell id="-WjWsvHY24xJDagIEpUm-145" value="&lt;p style=&quot;margin: 4px 0px 0px; text-align: center;&quot;&gt;&lt;b&gt;&lt;u&gt;BugReportBroadCast&lt;/u&gt;&lt;/b&gt;&lt;br&gt;&lt;/p&gt;&lt;hr&gt;&lt;p style=&quot;margin: 0px; margin-left: 8px;&quot;&gt;...&lt;/p&gt;" style="verticalAlign=top;align=left;overflow=fill;fontSize=12;fontFamily=Helvetica;html=1;strokeColor=#003366;shadow=1;fillColor=#D4E1F5;fontColor=#003366" parent="1" vertex="1">
          <mxGeometry x="1340" y="1594" width="150" height="56" as="geometry" />
        </mxCell>
        <mxCell id="-WjWsvHY24xJDagIEpUm-147" value="&lt;p style=&quot;margin: 4px 0px 0px; text-align: center;&quot;&gt;&lt;b&gt;&lt;u&gt;ConfigManager&lt;/u&gt;&lt;/b&gt;&lt;br&gt;&lt;/p&gt;&lt;hr&gt;&lt;p style=&quot;margin: 0px; margin-left: 8px;&quot;&gt;getService()&lt;br&gt;&lt;/p&gt;&lt;p style=&quot;margin: 0px; margin-left: 8px;&quot;&gt;getVibrationTimings()&lt;/p&gt;&lt;p style=&quot;margin: 0px; margin-left: 8px;&quot;&gt;loadData()&lt;/p&gt;&lt;p style=&quot;margin: 0px; margin-left: 8px;&quot;&gt;updateConfig()&lt;/p&gt;&lt;p style=&quot;margin: 0px; margin-left: 8px;&quot;&gt;updateChannel()&lt;/p&gt;" style="verticalAlign=top;align=left;overflow=fill;fontSize=12;fontFamily=Helvetica;html=1;strokeColor=#003366;shadow=1;fillColor=#D4E1F5;fontColor=#003366" parent="1" vertex="1">
          <mxGeometry x="-460" y="1860" width="160" height="120" as="geometry" />
        </mxCell>
        <mxCell id="-WjWsvHY24xJDagIEpUm-148" value="&lt;p style=&quot;margin: 4px 0px 0px; text-align: center;&quot;&gt;&lt;b&gt;&lt;u&gt;FloatWindowService&lt;/u&gt;&lt;/b&gt;&lt;br&gt;&lt;/p&gt;&lt;hr&gt;&lt;p style=&quot;margin: 0px; margin-left: 8px;&quot;&gt;getService()&lt;br&gt;&lt;/p&gt;&lt;p style=&quot;margin: 0px; margin-left: 8px;&quot;&gt;setIsAmbientResume()&lt;br&gt;&lt;/p&gt;&lt;p style=&quot;margin: 0px; margin-left: 8px;&quot;&gt;getIsAmbientMode()&lt;br&gt;&lt;/p&gt;&lt;p style=&quot;margin: 0px; margin-left: 8px;&quot;&gt;getHomeWindow()&lt;br&gt;&lt;/p&gt;&lt;p style=&quot;margin: 0px; margin-left: 8px;&quot;&gt;setVibrateMode()&lt;br&gt;&lt;/p&gt;&lt;p style=&quot;margin: 0px; margin-left: 8px;&quot;&gt;loadPreview()&lt;br&gt;&lt;/p&gt;&lt;p style=&quot;margin: 0px; margin-left: 8px;&quot;&gt;startForeground()&lt;br&gt;&lt;/p&gt;&lt;p style=&quot;margin: 0px; margin-left: 8px;&quot;&gt;notifyEvent()&lt;br&gt;&lt;/p&gt;&lt;p style=&quot;margin: 0px; margin-left: 8px;&quot;&gt;notifyViewState()&lt;br&gt;&lt;/p&gt;&lt;p style=&quot;margin: 0px; margin-left: 8px;&quot;&gt;acquireWakeLock()&lt;br&gt;&lt;/p&gt;&lt;p style=&quot;margin: 0px; margin-left: 8px;&quot;&gt;releaseWakeLock()&lt;br&gt;&lt;/p&gt;&lt;p style=&quot;margin: 0px; margin-left: 8px;&quot;&gt;open()&lt;br&gt;&lt;/p&gt;&lt;p style=&quot;margin: 0px; margin-left: 8px;&quot;&gt;close()&lt;/p&gt;&lt;p style=&quot;margin: 0px; margin-left: 8px;&quot;&gt;sendMessageToSlate()&lt;/p&gt;&lt;p style=&quot;margin: 0px; margin-left: 8px;&quot;&gt;...&lt;/p&gt;" style="verticalAlign=top;align=left;overflow=fill;fontSize=12;fontFamily=Helvetica;html=1;strokeColor=#003366;shadow=1;fillColor=#D4E1F5;fontColor=#003366" parent="1" vertex="1">
          <mxGeometry x="130" y="1650" width="210" height="250" as="geometry" />
        </mxCell>
        <mxCell id="-WjWsvHY24xJDagIEpUm-161" style="edgeStyle=orthogonalEdgeStyle;rounded=0;orthogonalLoop=1;jettySize=auto;html=1;entryX=0.5;entryY=0;entryDx=0;entryDy=0;" parent="1" source="-WjWsvHY24xJDagIEpUm-152" target="-WjWsvHY24xJDagIEpUm-153" edge="1">
          <mxGeometry relative="1" as="geometry" />
        </mxCell>
        <mxCell id="-WjWsvHY24xJDagIEpUm-163" value="extends" style="edgeLabel;html=1;align=center;verticalAlign=middle;resizable=0;points=[];" parent="-WjWsvHY24xJDagIEpUm-161" vertex="1" connectable="0">
          <mxGeometry x="-0.0441" y="-2" relative="1" as="geometry">
            <mxPoint as="offset" />
          </mxGeometry>
        </mxCell>
        <mxCell id="-WjWsvHY24xJDagIEpUm-174" style="edgeStyle=orthogonalEdgeStyle;rounded=0;orthogonalLoop=1;jettySize=auto;html=1;entryX=1;entryY=0.5;entryDx=0;entryDy=0;" parent="1" source="-WjWsvHY24xJDagIEpUm-152" target="-WjWsvHY24xJDagIEpUm-148" edge="1">
          <mxGeometry relative="1" as="geometry">
            <Array as="points">
              <mxPoint x="430" y="1541" />
              <mxPoint x="430" y="1775" />
            </Array>
          </mxGeometry>
        </mxCell>
        <mxCell id="-WjWsvHY24xJDagIEpUm-152" value="&lt;p style=&quot;margin: 4px 0px 0px; text-align: center;&quot;&gt;&lt;b&gt;&lt;u&gt;INotify&lt;/u&gt;&lt;/b&gt;&lt;br&gt;&lt;/p&gt;&lt;hr&gt;&lt;p style=&quot;margin: 0px; margin-left: 8px;&quot;&gt;notifyEvent()&lt;br&gt;&lt;/p&gt;" style="verticalAlign=top;align=left;overflow=fill;fontSize=12;fontFamily=Helvetica;html=1;strokeColor=#003366;shadow=1;fillColor=#D4E1F5;fontColor=#003366" parent="1" vertex="1">
          <mxGeometry x="460" y="1512.5" width="100" height="57.5" as="geometry" />
        </mxCell>
        <mxCell id="-WjWsvHY24xJDagIEpUm-172" style="edgeStyle=orthogonalEdgeStyle;rounded=0;orthogonalLoop=1;jettySize=auto;html=1;entryX=1;entryY=0.5;entryDx=0;entryDy=0;" parent="1" source="-WjWsvHY24xJDagIEpUm-153" target="-WjWsvHY24xJDagIEpUm-148" edge="1">
          <mxGeometry relative="1" as="geometry">
            <Array as="points">
              <mxPoint x="430" y="1625" />
              <mxPoint x="430" y="1775" />
            </Array>
          </mxGeometry>
        </mxCell>
        <mxCell id="-WjWsvHY24xJDagIEpUm-153" value="&lt;p style=&quot;margin: 4px 0px 0px; text-align: center;&quot;&gt;&lt;b&gt;&lt;u&gt;ISubNotify&lt;/u&gt;&lt;/b&gt;&lt;br&gt;&lt;/p&gt;&lt;hr&gt;&lt;p style=&quot;margin: 0px; margin-left: 8px;&quot;&gt;notifyViewState()&lt;br&gt;&lt;/p&gt;" style="verticalAlign=top;align=left;overflow=fill;fontSize=12;fontFamily=Helvetica;html=1;strokeColor=#003366;shadow=1;fillColor=#D4E1F5;fontColor=#003366" parent="1" vertex="1">
          <mxGeometry x="455" y="1620" width="110" height="50" as="geometry" />
        </mxCell>
        <mxCell id="-WjWsvHY24xJDagIEpUm-179" style="edgeStyle=orthogonalEdgeStyle;rounded=0;orthogonalLoop=1;jettySize=auto;html=1;entryX=1;entryY=0.5;entryDx=0;entryDy=0;" parent="1" source="-WjWsvHY24xJDagIEpUm-167" target="-WjWsvHY24xJDagIEpUm-148" edge="1">
          <mxGeometry relative="1" as="geometry">
            <Array as="points">
              <mxPoint x="430" y="1719" />
              <mxPoint x="430" y="1775" />
            </Array>
          </mxGeometry>
        </mxCell>
        <mxCell id="-WjWsvHY24xJDagIEpUm-181" value="implements" style="edgeLabel;html=1;align=center;verticalAlign=middle;resizable=0;points=[];" parent="-WjWsvHY24xJDagIEpUm-179" vertex="1" connectable="0">
          <mxGeometry x="0.5076" y="-1" relative="1" as="geometry">
            <mxPoint as="offset" />
          </mxGeometry>
        </mxCell>
        <mxCell id="-WjWsvHY24xJDagIEpUm-167" value="&lt;p style=&quot;margin: 4px 0px 0px; text-align: center;&quot;&gt;&lt;b&gt;&lt;u&gt;INotify&lt;/u&gt;&lt;/b&gt;&lt;br&gt;&lt;/p&gt;&lt;hr&gt;&lt;p style=&quot;margin: 0px; margin-left: 8px;&quot;&gt;open()&lt;br&gt;&lt;/p&gt;&lt;p style=&quot;margin: 0px; margin-left: 8px;&quot;&gt;close()&lt;/p&gt;" style="verticalAlign=top;align=left;overflow=fill;fontSize=12;fontFamily=Helvetica;html=1;strokeColor=#003366;shadow=1;fillColor=#D4E1F5;fontColor=#003366" parent="1" vertex="1">
          <mxGeometry x="455" y="1684" width="110" height="70" as="geometry" />
        </mxCell>
        <mxCell id="-WjWsvHY24xJDagIEpUm-184" value="&lt;p style=&quot;margin: 4px 0px 0px; text-align: center;&quot;&gt;&lt;b&gt;&lt;u&gt;NotificationDragView&lt;/u&gt;&lt;/b&gt;&lt;br&gt;&lt;/p&gt;&lt;hr&gt;&lt;p style=&quot;margin: 0px; margin-left: 8px;&quot;&gt;&lt;br&gt;&lt;/p&gt;" style="verticalAlign=top;align=left;overflow=fill;fontSize=12;fontFamily=Helvetica;html=1;strokeColor=#003366;shadow=1;fillColor=#D4E1F5;fontColor=#003366" parent="1" vertex="1">
          <mxGeometry x="694.9999999999999" y="1650" width="210" height="220" as="geometry" />
        </mxCell>
        <mxCell id="-WjWsvHY24xJDagIEpUm-190" style="edgeStyle=orthogonalEdgeStyle;rounded=0;orthogonalLoop=1;jettySize=auto;html=1;entryX=0.5;entryY=0;entryDx=0;entryDy=0;" parent="1" source="-WjWsvHY24xJDagIEpUm-189" target="-WjWsvHY24xJDagIEpUm-184" edge="1">
          <mxGeometry relative="1" as="geometry" />
        </mxCell>
        <mxCell id="-WjWsvHY24xJDagIEpUm-191" value="extends" style="edgeLabel;html=1;align=center;verticalAlign=middle;resizable=0;points=[];" parent="-WjWsvHY24xJDagIEpUm-190" vertex="1" connectable="0">
          <mxGeometry x="-0.7059" y="-3" relative="1" as="geometry">
            <mxPoint as="offset" />
          </mxGeometry>
        </mxCell>
        <mxCell id="-WjWsvHY24xJDagIEpUm-189" value="&lt;p style=&quot;margin: 4px 0px 0px; text-align: center;&quot;&gt;&lt;b&gt;&lt;u&gt;RelativeLayout&lt;/u&gt;&lt;/b&gt;&lt;br&gt;&lt;/p&gt;&lt;hr&gt;&lt;p style=&quot;margin: 0px; margin-left: 8px;&quot;&gt;...&lt;/p&gt;" style="verticalAlign=top;align=left;overflow=fill;fontSize=12;fontFamily=Helvetica;html=1;strokeColor=#003366;shadow=1;fillColor=#D4E1F5;fontColor=#003366" parent="1" vertex="1">
          <mxGeometry x="720" y="1320" width="160" height="50" as="geometry" />
        </mxCell>
        <mxCell id="SUiiR8tl3ieN-L8OfsxM-157" style="edgeStyle=orthogonalEdgeStyle;rounded=0;orthogonalLoop=1;jettySize=auto;html=1;entryX=0.5;entryY=1;entryDx=0;entryDy=0;" edge="1" parent="1" source="SUiiR8tl3ieN-L8OfsxM-120" target="SUiiR8tl3ieN-L8OfsxM-132">
          <mxGeometry relative="1" as="geometry" />
        </mxCell>
        <mxCell id="SUiiR8tl3ieN-L8OfsxM-158" value="Extends" style="edgeLabel;html=1;align=center;verticalAlign=middle;resizable=0;points=[];" vertex="1" connectable="0" parent="SUiiR8tl3ieN-L8OfsxM-157">
          <mxGeometry x="0.5294" y="1" relative="1" as="geometry">
            <mxPoint as="offset" />
          </mxGeometry>
        </mxCell>
        <mxCell id="SUiiR8tl3ieN-L8OfsxM-160" style="edgeStyle=orthogonalEdgeStyle;rounded=0;orthogonalLoop=1;jettySize=auto;html=1;entryX=0.5;entryY=1;entryDx=0;entryDy=0;" edge="1" parent="1" source="SUiiR8tl3ieN-L8OfsxM-120" target="SUiiR8tl3ieN-L8OfsxM-159">
          <mxGeometry relative="1" as="geometry" />
        </mxCell>
        <mxCell id="SUiiR8tl3ieN-L8OfsxM-163" value="impl" style="edgeLabel;html=1;align=center;verticalAlign=middle;resizable=0;points=[];" vertex="1" connectable="0" parent="SUiiR8tl3ieN-L8OfsxM-160">
          <mxGeometry x="0.4359" y="-2" relative="1" as="geometry">
            <mxPoint as="offset" />
          </mxGeometry>
        </mxCell>
        <mxCell id="SUiiR8tl3ieN-L8OfsxM-120" value="&lt;b style=&quot;border-color: var(--border-color); color: rgb(0, 51, 102); background-color: initial;&quot;&gt;&lt;u style=&quot;border-color: var(--border-color);&quot;&gt;NotificationListener&lt;/u&gt;&lt;/b&gt;" style="swimlane;fontStyle=1;align=center;verticalAlign=top;childLayout=stackLayout;horizontal=1;startSize=26;horizontalStack=0;resizeParent=1;resizeParentMax=0;resizeLast=0;collapsible=1;marginBottom=0;whiteSpace=wrap;html=1;" vertex="1" parent="1">
          <mxGeometry x="-370" y="3030" width="160" height="56" as="geometry" />
        </mxCell>
        <mxCell id="SUiiR8tl3ieN-L8OfsxM-304" value="onNotificationPosted()" style="text;html=1;align=center;verticalAlign=middle;resizable=0;points=[];autosize=1;strokeColor=none;fillColor=none;" vertex="1" parent="SUiiR8tl3ieN-L8OfsxM-120">
          <mxGeometry y="26" width="160" height="30" as="geometry" />
        </mxCell>
        <mxCell id="SUiiR8tl3ieN-L8OfsxM-166" style="edgeStyle=orthogonalEdgeStyle;rounded=0;orthogonalLoop=1;jettySize=auto;html=1;entryX=0;entryY=0.5;entryDx=0;entryDy=0;" edge="1" parent="1" source="SUiiR8tl3ieN-L8OfsxM-124" target="SUiiR8tl3ieN-L8OfsxM-162">
          <mxGeometry relative="1" as="geometry" />
        </mxCell>
        <mxCell id="SUiiR8tl3ieN-L8OfsxM-167" style="edgeStyle=orthogonalEdgeStyle;rounded=0;orthogonalLoop=1;jettySize=auto;html=1;entryX=0;entryY=0.5;entryDx=0;entryDy=0;" edge="1" parent="1" source="SUiiR8tl3ieN-L8OfsxM-124" target="SUiiR8tl3ieN-L8OfsxM-164">
          <mxGeometry relative="1" as="geometry" />
        </mxCell>
        <mxCell id="SUiiR8tl3ieN-L8OfsxM-168" style="edgeStyle=orthogonalEdgeStyle;rounded=0;orthogonalLoop=1;jettySize=auto;html=1;entryX=0;entryY=0.5;entryDx=0;entryDy=0;" edge="1" parent="1" source="SUiiR8tl3ieN-L8OfsxM-124" target="SUiiR8tl3ieN-L8OfsxM-165">
          <mxGeometry relative="1" as="geometry" />
        </mxCell>
        <mxCell id="SUiiR8tl3ieN-L8OfsxM-169" value="impl" style="edgeLabel;html=1;align=center;verticalAlign=middle;resizable=0;points=[];" vertex="1" connectable="0" parent="SUiiR8tl3ieN-L8OfsxM-168">
          <mxGeometry x="-0.6768" relative="1" as="geometry">
            <mxPoint as="offset" />
          </mxGeometry>
        </mxCell>
        <mxCell id="SUiiR8tl3ieN-L8OfsxM-173" style="edgeStyle=orthogonalEdgeStyle;rounded=0;orthogonalLoop=1;jettySize=auto;html=1;entryX=0.5;entryY=1;entryDx=0;entryDy=0;" edge="1" parent="1" source="SUiiR8tl3ieN-L8OfsxM-124" target="SUiiR8tl3ieN-L8OfsxM-131">
          <mxGeometry relative="1" as="geometry" />
        </mxCell>
        <mxCell id="SUiiR8tl3ieN-L8OfsxM-124" value="FloatWindowService" style="swimlane;fontStyle=1;align=center;verticalAlign=top;childLayout=stackLayout;horizontal=1;startSize=26;horizontalStack=0;resizeParent=1;resizeParentMax=0;resizeLast=0;collapsible=1;marginBottom=0;whiteSpace=wrap;html=1;" vertex="1" parent="1">
          <mxGeometry x="-190" y="3110" width="160" height="160" as="geometry" />
        </mxCell>
        <mxCell id="SUiiR8tl3ieN-L8OfsxM-199" value="mHomeWindow" style="text;html=1;align=center;verticalAlign=middle;resizable=0;points=[];autosize=1;strokeColor=none;fillColor=none;" vertex="1" parent="SUiiR8tl3ieN-L8OfsxM-124">
          <mxGeometry y="26" width="160" height="30" as="geometry" />
        </mxCell>
        <mxCell id="SUiiR8tl3ieN-L8OfsxM-122" value="" style="line;strokeWidth=1;fillColor=none;align=left;verticalAlign=middle;spacingTop=-1;spacingLeft=3;spacingRight=3;rotatable=0;labelPosition=right;points=[];portConstraint=eastwest;strokeColor=inherit;" vertex="1" parent="SUiiR8tl3ieN-L8OfsxM-124">
          <mxGeometry y="56" width="160" height="44" as="geometry" />
        </mxCell>
        <mxCell id="SUiiR8tl3ieN-L8OfsxM-210" value="notifyViewState()" style="text;html=1;align=center;verticalAlign=middle;resizable=0;points=[];autosize=1;strokeColor=none;fillColor=none;" vertex="1" parent="SUiiR8tl3ieN-L8OfsxM-124">
          <mxGeometry y="100" width="160" height="30" as="geometry" />
        </mxCell>
        <mxCell id="SUiiR8tl3ieN-L8OfsxM-209" value="nitifyEvent()" style="text;html=1;align=center;verticalAlign=middle;resizable=0;points=[];autosize=1;strokeColor=none;fillColor=none;" vertex="1" parent="SUiiR8tl3ieN-L8OfsxM-124">
          <mxGeometry y="130" width="160" height="30" as="geometry" />
        </mxCell>
        <mxCell id="SUiiR8tl3ieN-L8OfsxM-129" value="" style="endArrow=none;dashed=1;html=1;dashPattern=1 3;strokeWidth=2;rounded=0;" edge="1" parent="1">
          <mxGeometry width="50" height="50" relative="1" as="geometry">
            <mxPoint x="-660" y="2840" as="sourcePoint" />
            <mxPoint x="1500.9547619047619" y="2840" as="targetPoint" />
          </mxGeometry>
        </mxCell>
        <mxCell id="SUiiR8tl3ieN-L8OfsxM-131" value="&lt;p style=&quot;margin:0px;margin-top:4px;text-align:center;&quot;&gt;&lt;br&gt;&lt;b&gt;Service&lt;/b&gt;&lt;/p&gt;" style="verticalAlign=top;align=left;overflow=fill;fontSize=12;fontFamily=Helvetica;html=1;whiteSpace=wrap;" vertex="1" parent="1">
          <mxGeometry x="-90" y="2620" width="150" height="50" as="geometry" />
        </mxCell>
        <mxCell id="SUiiR8tl3ieN-L8OfsxM-153" style="edgeStyle=orthogonalEdgeStyle;rounded=0;orthogonalLoop=1;jettySize=auto;html=1;entryX=0.5;entryY=1;entryDx=0;entryDy=0;" edge="1" parent="1" source="SUiiR8tl3ieN-L8OfsxM-132" target="SUiiR8tl3ieN-L8OfsxM-131">
          <mxGeometry relative="1" as="geometry">
            <Array as="points">
              <mxPoint x="-15" y="2770" />
            </Array>
          </mxGeometry>
        </mxCell>
        <mxCell id="SUiiR8tl3ieN-L8OfsxM-156" value="Extends" style="edgeLabel;html=1;align=center;verticalAlign=middle;resizable=0;points=[];" vertex="1" connectable="0" parent="SUiiR8tl3ieN-L8OfsxM-153">
          <mxGeometry x="0.6083" y="3" relative="1" as="geometry">
            <mxPoint as="offset" />
          </mxGeometry>
        </mxCell>
        <mxCell id="SUiiR8tl3ieN-L8OfsxM-132" value="&lt;p style=&quot;margin:0px;margin-top:4px;text-align:center;&quot;&gt;&lt;br&gt;&lt;/p&gt;&lt;p style=&quot;margin:0px;margin-top:4px;text-align:center;&quot;&gt;NotificationListenerService&lt;br&gt;&lt;/p&gt;" style="verticalAlign=top;align=left;overflow=fill;fontSize=12;fontFamily=Helvetica;html=1;whiteSpace=wrap;" vertex="1" parent="1">
          <mxGeometry x="-400" y="2740" width="220" height="60" as="geometry" />
        </mxCell>
        <mxCell id="SUiiR8tl3ieN-L8OfsxM-134" value="&lt;p style=&quot;margin:0px;margin-top:4px;text-align:center;&quot;&gt;&lt;br&gt;&lt;b&gt;RelativeLayout&lt;/b&gt;&lt;br&gt;&lt;/p&gt;" style="verticalAlign=top;align=left;overflow=fill;fontSize=12;fontFamily=Helvetica;html=1;whiteSpace=wrap;" vertex="1" parent="1">
          <mxGeometry x="200" y="2630" width="150" height="50" as="geometry" />
        </mxCell>
        <mxCell id="SUiiR8tl3ieN-L8OfsxM-135" value="&lt;p style=&quot;margin:0px;margin-top:4px;text-align:center;&quot;&gt;&lt;br&gt;&lt;b&gt;BroadcastReceiver&lt;/b&gt;&lt;br&gt;&lt;/p&gt;" style="verticalAlign=top;align=left;overflow=fill;fontSize=12;fontFamily=Helvetica;html=1;whiteSpace=wrap;" vertex="1" parent="1">
          <mxGeometry x="780" y="2620" width="150" height="50" as="geometry" />
        </mxCell>
        <mxCell id="SUiiR8tl3ieN-L8OfsxM-152" style="edgeStyle=orthogonalEdgeStyle;rounded=0;orthogonalLoop=1;jettySize=auto;html=1;entryX=0.5;entryY=1;entryDx=0;entryDy=0;" edge="1" parent="1" source="SUiiR8tl3ieN-L8OfsxM-139" target="SUiiR8tl3ieN-L8OfsxM-134">
          <mxGeometry relative="1" as="geometry" />
        </mxCell>
        <mxCell id="SUiiR8tl3ieN-L8OfsxM-183" value="Extends" style="edgeLabel;html=1;align=center;verticalAlign=middle;resizable=0;points=[];" vertex="1" connectable="0" parent="SUiiR8tl3ieN-L8OfsxM-152">
          <mxGeometry x="0.6479" y="1" relative="1" as="geometry">
            <mxPoint as="offset" />
          </mxGeometry>
        </mxCell>
        <mxCell id="SUiiR8tl3ieN-L8OfsxM-283" style="edgeStyle=orthogonalEdgeStyle;rounded=0;orthogonalLoop=1;jettySize=auto;html=1;entryX=1;entryY=0.25;entryDx=0;entryDy=0;" edge="1" parent="1" source="SUiiR8tl3ieN-L8OfsxM-139" target="SUiiR8tl3ieN-L8OfsxM-172">
          <mxGeometry relative="1" as="geometry">
            <Array as="points">
              <mxPoint x="280" y="3324" />
            </Array>
          </mxGeometry>
        </mxCell>
        <mxCell id="SUiiR8tl3ieN-L8OfsxM-284" value="use in" style="edgeLabel;html=1;align=center;verticalAlign=middle;resizable=0;points=[];" vertex="1" connectable="0" parent="SUiiR8tl3ieN-L8OfsxM-283">
          <mxGeometry x="0.6893" y="-3" relative="1" as="geometry">
            <mxPoint as="offset" />
          </mxGeometry>
        </mxCell>
        <mxCell id="SUiiR8tl3ieN-L8OfsxM-139" value="&lt;b style=&quot;border-color: var(--border-color); color: rgb(0, 51, 102);&quot;&gt;&lt;u style=&quot;border-color: var(--border-color);&quot;&gt;NotificationDragView&lt;/u&gt;&lt;/b&gt;" style="swimlane;fontStyle=1;align=center;verticalAlign=top;childLayout=stackLayout;horizontal=1;startSize=26;horizontalStack=0;resizeParent=1;resizeParentMax=0;resizeLast=0;collapsible=1;marginBottom=0;whiteSpace=wrap;html=1;" vertex="1" parent="1">
          <mxGeometry x="195" y="3212" width="160" height="56" as="geometry" />
        </mxCell>
        <mxCell id="SUiiR8tl3ieN-L8OfsxM-203" value="notifyData()" style="text;html=1;align=center;verticalAlign=middle;resizable=0;points=[];autosize=1;strokeColor=none;fillColor=none;" vertex="1" parent="SUiiR8tl3ieN-L8OfsxM-139">
          <mxGeometry y="26" width="160" height="30" as="geometry" />
        </mxCell>
        <mxCell id="SUiiR8tl3ieN-L8OfsxM-179" style="edgeStyle=orthogonalEdgeStyle;rounded=0;orthogonalLoop=1;jettySize=auto;html=1;entryX=0.5;entryY=1;entryDx=0;entryDy=0;" edge="1" parent="1" source="SUiiR8tl3ieN-L8OfsxM-141" target="SUiiR8tl3ieN-L8OfsxM-135">
          <mxGeometry relative="1" as="geometry">
            <Array as="points">
              <mxPoint x="660" y="2840" />
              <mxPoint x="855" y="2840" />
            </Array>
          </mxGeometry>
        </mxCell>
        <mxCell id="SUiiR8tl3ieN-L8OfsxM-141" value="&lt;b style=&quot;border-color: var(--border-color); color: rgb(0, 51, 102);&quot;&gt;&lt;u style=&quot;border-color: var(--border-color);&quot;&gt;WindowReceiver&lt;/u&gt;&lt;/b&gt;" style="swimlane;fontStyle=1;align=center;verticalAlign=top;childLayout=stackLayout;horizontal=1;startSize=26;horizontalStack=0;resizeParent=1;resizeParentMax=0;resizeLast=0;collapsible=1;marginBottom=0;whiteSpace=wrap;html=1;" vertex="1" parent="1">
          <mxGeometry x="580" y="2923" width="160" height="34" as="geometry" />
        </mxCell>
        <mxCell id="SUiiR8tl3ieN-L8OfsxM-149" style="edgeStyle=orthogonalEdgeStyle;rounded=0;orthogonalLoop=1;jettySize=auto;html=1;entryX=0.5;entryY=1;entryDx=0;entryDy=0;" edge="1" parent="1" source="SUiiR8tl3ieN-L8OfsxM-142" target="SUiiR8tl3ieN-L8OfsxM-135">
          <mxGeometry relative="1" as="geometry">
            <Array as="points">
              <mxPoint x="855" y="2850" />
              <mxPoint x="855" y="2850" />
            </Array>
          </mxGeometry>
        </mxCell>
        <mxCell id="SUiiR8tl3ieN-L8OfsxM-142" value="&lt;b style=&quot;border-color: var(--border-color); color: rgb(0, 51, 102);&quot;&gt;&lt;u style=&quot;border-color: var(--border-color);&quot;&gt;StartEventReceiver&lt;/u&gt;&lt;/b&gt;" style="swimlane;fontStyle=1;align=center;verticalAlign=top;childLayout=stackLayout;horizontal=1;startSize=26;horizontalStack=0;resizeParent=1;resizeParentMax=0;resizeLast=0;collapsible=1;marginBottom=0;whiteSpace=wrap;html=1;" vertex="1" parent="1">
          <mxGeometry x="760" y="2923" width="160" height="34" as="geometry" />
        </mxCell>
        <mxCell id="SUiiR8tl3ieN-L8OfsxM-148" style="edgeStyle=orthogonalEdgeStyle;rounded=0;orthogonalLoop=1;jettySize=auto;html=1;entryX=0.5;entryY=1;entryDx=0;entryDy=0;" edge="1" parent="1" source="SUiiR8tl3ieN-L8OfsxM-143" target="SUiiR8tl3ieN-L8OfsxM-135">
          <mxGeometry relative="1" as="geometry">
            <Array as="points">
              <mxPoint x="1010" y="2840" />
              <mxPoint x="855" y="2840" />
            </Array>
          </mxGeometry>
        </mxCell>
        <mxCell id="SUiiR8tl3ieN-L8OfsxM-151" value="Extends" style="edgeLabel;html=1;align=center;verticalAlign=middle;resizable=0;points=[];" vertex="1" connectable="0" parent="SUiiR8tl3ieN-L8OfsxM-148">
          <mxGeometry x="0.5204" y="3" relative="1" as="geometry">
            <mxPoint as="offset" />
          </mxGeometry>
        </mxCell>
        <mxCell id="SUiiR8tl3ieN-L8OfsxM-143" value="&lt;b style=&quot;border-color: var(--border-color); color: rgb(0, 51, 102);&quot;&gt;&lt;u style=&quot;border-color: var(--border-color);&quot;&gt;BugReportBroadCast&lt;/u&gt;&lt;/b&gt;" style="swimlane;fontStyle=1;align=center;verticalAlign=top;childLayout=stackLayout;horizontal=1;startSize=26;horizontalStack=0;resizeParent=1;resizeParentMax=0;resizeLast=0;collapsible=1;marginBottom=0;whiteSpace=wrap;html=1;" vertex="1" parent="1">
          <mxGeometry x="940" y="2923" width="160" height="34" as="geometry" />
        </mxCell>
        <mxCell id="SUiiR8tl3ieN-L8OfsxM-159" value="«interface»&lt;br&gt;&lt;b style=&quot;border-color: var(--border-color); color: rgb(0, 51, 102); background-color: initial;&quot;&gt;&lt;u style=&quot;border-color: var(--border-color);&quot;&gt;INotificationCancel&lt;/u&gt;&lt;/b&gt;" style="html=1;whiteSpace=wrap;" vertex="1" parent="1">
          <mxGeometry x="-500" y="2850" width="130" height="50" as="geometry" />
        </mxCell>
        <mxCell id="SUiiR8tl3ieN-L8OfsxM-162" value="«interface»&lt;br&gt;&lt;b style=&quot;border-color: var(--border-color); color: rgb(0, 51, 102); background-color: initial;&quot;&gt;&lt;u style=&quot;border-color: var(--border-color);&quot;&gt;INotify&lt;/u&gt;&lt;/b&gt;" style="html=1;whiteSpace=wrap;" vertex="1" parent="1">
          <mxGeometry x="80" y="2860" width="130" height="50" as="geometry" />
        </mxCell>
        <mxCell id="SUiiR8tl3ieN-L8OfsxM-170" style="edgeStyle=orthogonalEdgeStyle;rounded=0;orthogonalLoop=1;jettySize=auto;html=1;entryX=0.5;entryY=1;entryDx=0;entryDy=0;" edge="1" parent="1" source="SUiiR8tl3ieN-L8OfsxM-164" target="SUiiR8tl3ieN-L8OfsxM-162">
          <mxGeometry relative="1" as="geometry" />
        </mxCell>
        <mxCell id="SUiiR8tl3ieN-L8OfsxM-171" value="Extends" style="edgeLabel;html=1;align=center;verticalAlign=middle;resizable=0;points=[];" vertex="1" connectable="0" parent="SUiiR8tl3ieN-L8OfsxM-170">
          <mxGeometry x="-0.05" relative="1" as="geometry">
            <mxPoint as="offset" />
          </mxGeometry>
        </mxCell>
        <mxCell id="SUiiR8tl3ieN-L8OfsxM-164" value="«interface»&lt;br&gt;&lt;b style=&quot;border-color: var(--border-color); color: rgb(0, 51, 102); background-color: initial;&quot;&gt;&lt;u style=&quot;border-color: var(--border-color);&quot;&gt;ISubNotify&lt;/u&gt;&lt;/b&gt;" style="html=1;whiteSpace=wrap;" vertex="1" parent="1">
          <mxGeometry x="80" y="2950" width="130" height="50" as="geometry" />
        </mxCell>
        <mxCell id="SUiiR8tl3ieN-L8OfsxM-165" value="«interface»&lt;br&gt;&lt;font color=&quot;#003366&quot;&gt;&lt;b&gt;&lt;u&gt;IWindow&lt;/u&gt;&lt;/b&gt;&lt;/font&gt;" style="html=1;whiteSpace=wrap;" vertex="1" parent="1">
          <mxGeometry x="80" y="3030" width="130" height="50" as="geometry" />
        </mxCell>
        <mxCell id="SUiiR8tl3ieN-L8OfsxM-172" value="&lt;b style=&quot;border-color: var(--border-color); color: rgb(0, 51, 102);&quot;&gt;&lt;u style=&quot;border-color: var(--border-color);&quot;&gt;NotificationWindow&lt;/u&gt;&lt;/b&gt;" style="swimlane;fontStyle=1;align=center;verticalAlign=top;childLayout=stackLayout;horizontal=1;startSize=26;horizontalStack=0;resizeParent=1;resizeParentMax=0;resizeLast=0;collapsible=1;marginBottom=0;whiteSpace=wrap;html=1;" vertex="1" parent="1">
          <mxGeometry x="-30" y="3310" width="160" height="56" as="geometry">
            <mxRectangle x="-60" y="3310" width="150" height="30" as="alternateBounds" />
          </mxGeometry>
        </mxCell>
        <mxCell id="SUiiR8tl3ieN-L8OfsxM-198" value="&lt;b style=&quot;border-color: var(--border-color); color: rgb(0, 51, 102);&quot;&gt;&lt;u style=&quot;border-color: var(--border-color);&quot;&gt;mDragNotification&lt;/u&gt;&lt;/b&gt;" style="text;html=1;align=center;verticalAlign=middle;resizable=0;points=[];autosize=1;strokeColor=none;fillColor=none;" vertex="1" parent="SUiiR8tl3ieN-L8OfsxM-172">
          <mxGeometry y="26" width="160" height="30" as="geometry" />
        </mxCell>
        <mxCell id="SUiiR8tl3ieN-L8OfsxM-180" style="edgeStyle=orthogonalEdgeStyle;rounded=0;orthogonalLoop=1;jettySize=auto;html=1;" edge="1" parent="1" source="SUiiR8tl3ieN-L8OfsxM-175" target="SUiiR8tl3ieN-L8OfsxM-177">
          <mxGeometry relative="1" as="geometry" />
        </mxCell>
        <mxCell id="SUiiR8tl3ieN-L8OfsxM-184" value="Extends" style="edgeLabel;html=1;align=center;verticalAlign=middle;resizable=0;points=[];" vertex="1" connectable="0" parent="SUiiR8tl3ieN-L8OfsxM-180">
          <mxGeometry x="0.7394" y="2" relative="1" as="geometry">
            <mxPoint as="offset" />
          </mxGeometry>
        </mxCell>
        <mxCell id="SUiiR8tl3ieN-L8OfsxM-186" style="edgeStyle=orthogonalEdgeStyle;rounded=0;orthogonalLoop=1;jettySize=auto;html=1;entryX=1;entryY=0.5;entryDx=0;entryDy=0;" edge="1" parent="1" source="SUiiR8tl3ieN-L8OfsxM-175" target="SUiiR8tl3ieN-L8OfsxM-139">
          <mxGeometry relative="1" as="geometry" />
        </mxCell>
        <mxCell id="SUiiR8tl3ieN-L8OfsxM-175" value="&lt;b style=&quot;border-color: var(--border-color); color: rgb(0, 51, 102);&quot;&gt;&lt;u style=&quot;border-color: var(--border-color);&quot;&gt;NotificationRecycleView&lt;/u&gt;&lt;/b&gt;" style="swimlane;fontStyle=1;align=center;verticalAlign=top;childLayout=stackLayout;horizontal=1;startSize=26;horizontalStack=0;resizeParent=1;resizeParentMax=0;resizeLast=0;collapsible=1;marginBottom=0;whiteSpace=wrap;html=1;" vertex="1" parent="1">
          <mxGeometry x="475" y="3090" width="160" height="56" as="geometry" />
        </mxCell>
        <mxCell id="SUiiR8tl3ieN-L8OfsxM-205" value="setAdapter" style="text;html=1;align=center;verticalAlign=middle;resizable=0;points=[];autosize=1;strokeColor=none;fillColor=none;" vertex="1" parent="SUiiR8tl3ieN-L8OfsxM-175">
          <mxGeometry y="26" width="160" height="30" as="geometry" />
        </mxCell>
        <mxCell id="SUiiR8tl3ieN-L8OfsxM-185" style="edgeStyle=orthogonalEdgeStyle;rounded=0;orthogonalLoop=1;jettySize=auto;html=1;entryX=1;entryY=0.5;entryDx=0;entryDy=0;" edge="1" parent="1" source="SUiiR8tl3ieN-L8OfsxM-176" target="SUiiR8tl3ieN-L8OfsxM-139">
          <mxGeometry relative="1" as="geometry">
            <mxPoint x="410" y="3247" as="targetPoint" />
          </mxGeometry>
        </mxCell>
        <mxCell id="SUiiR8tl3ieN-L8OfsxM-187" value="use in" style="edgeLabel;html=1;align=center;verticalAlign=middle;resizable=0;points=[];" vertex="1" connectable="0" parent="SUiiR8tl3ieN-L8OfsxM-185">
          <mxGeometry x="0.4897" relative="1" as="geometry">
            <mxPoint y="6" as="offset" />
          </mxGeometry>
        </mxCell>
        <mxCell id="SUiiR8tl3ieN-L8OfsxM-176" value="&lt;b style=&quot;border-color: var(--border-color); color: rgb(0, 51, 102);&quot;&gt;&lt;u style=&quot;border-color: var(--border-color);&quot;&gt;NotificationAdapter&lt;/u&gt;&lt;/b&gt;" style="swimlane;fontStyle=1;align=center;verticalAlign=top;childLayout=stackLayout;horizontal=1;startSize=26;horizontalStack=0;resizeParent=1;resizeParentMax=0;resizeLast=0;collapsible=1;marginBottom=0;whiteSpace=wrap;html=1;" vertex="1" parent="1">
          <mxGeometry x="490" y="3212" width="160" height="56" as="geometry" />
        </mxCell>
        <mxCell id="SUiiR8tl3ieN-L8OfsxM-204" value="setData()" style="text;html=1;align=center;verticalAlign=middle;resizable=0;points=[];autosize=1;strokeColor=none;fillColor=none;" vertex="1" parent="SUiiR8tl3ieN-L8OfsxM-176">
          <mxGeometry y="26" width="160" height="30" as="geometry" />
        </mxCell>
        <mxCell id="SUiiR8tl3ieN-L8OfsxM-177" value="&lt;p style=&quot;margin:0px;margin-top:4px;text-align:center;&quot;&gt;&lt;br&gt;&lt;b&gt;WearableRecyclerView&lt;/b&gt;&lt;br&gt;&lt;/p&gt;" style="verticalAlign=top;align=left;overflow=fill;fontSize=12;fontFamily=Helvetica;html=1;whiteSpace=wrap;" vertex="1" parent="1">
          <mxGeometry x="480" y="2710" width="150" height="50" as="geometry" />
        </mxCell>
        <mxCell id="SUiiR8tl3ieN-L8OfsxM-247" style="edgeStyle=orthogonalEdgeStyle;rounded=0;orthogonalLoop=1;jettySize=auto;html=1;entryX=0.5;entryY=1;entryDx=0;entryDy=0;" edge="1" parent="1" source="SUiiR8tl3ieN-L8OfsxM-213" target="SUiiR8tl3ieN-L8OfsxM-120">
          <mxGeometry relative="1" as="geometry">
            <Array as="points">
              <mxPoint x="-520" y="3190" />
              <mxPoint x="-290" y="3190" />
            </Array>
          </mxGeometry>
        </mxCell>
        <mxCell id="SUiiR8tl3ieN-L8OfsxM-269" style="edgeStyle=orthogonalEdgeStyle;rounded=0;orthogonalLoop=1;jettySize=auto;html=1;entryX=0;entryY=0.5;entryDx=0;entryDy=0;" edge="1" parent="1" source="SUiiR8tl3ieN-L8OfsxM-213" target="SUiiR8tl3ieN-L8OfsxM-124">
          <mxGeometry relative="1" as="geometry">
            <Array as="points">
              <mxPoint x="-520" y="3190" />
            </Array>
          </mxGeometry>
        </mxCell>
        <mxCell id="SUiiR8tl3ieN-L8OfsxM-270" value="use in" style="edgeLabel;html=1;align=center;verticalAlign=middle;resizable=0;points=[];" vertex="1" connectable="0" parent="SUiiR8tl3ieN-L8OfsxM-269">
          <mxGeometry x="0.4378" y="-2" relative="1" as="geometry">
            <mxPoint as="offset" />
          </mxGeometry>
        </mxCell>
        <mxCell id="SUiiR8tl3ieN-L8OfsxM-213" value="&lt;b style=&quot;border-color: var(--border-color); color: rgb(0, 51, 102); background-color: initial;&quot;&gt;&lt;u style=&quot;border-color: var(--border-color);&quot;&gt;NotificationRecordManager&lt;/u&gt;&lt;/b&gt;" style="swimlane;fontStyle=1;align=center;verticalAlign=top;childLayout=stackLayout;horizontal=1;startSize=26;horizontalStack=0;resizeParent=1;resizeParentMax=0;resizeLast=0;collapsible=1;marginBottom=0;whiteSpace=wrap;html=1;" vertex="1" parent="1">
          <mxGeometry x="-620" y="3600" width="200" height="56" as="geometry" />
        </mxCell>
        <mxCell id="SUiiR8tl3ieN-L8OfsxM-305" value="db" style="text;html=1;align=center;verticalAlign=middle;resizable=0;points=[];autosize=1;strokeColor=none;fillColor=none;" vertex="1" parent="SUiiR8tl3ieN-L8OfsxM-213">
          <mxGeometry y="26" width="200" height="30" as="geometry" />
        </mxCell>
        <mxCell id="SUiiR8tl3ieN-L8OfsxM-214" value="&lt;b style=&quot;border-color: var(--border-color); color: rgb(0, 51, 102); background-color: initial;&quot;&gt;&lt;u style=&quot;border-color: var(--border-color);&quot;&gt;NotificationTimer&lt;/u&gt;&lt;/b&gt;" style="swimlane;fontStyle=1;align=center;verticalAlign=top;childLayout=stackLayout;horizontal=1;startSize=26;horizontalStack=0;resizeParent=1;resizeParentMax=0;resizeLast=0;collapsible=1;marginBottom=0;whiteSpace=wrap;html=1;" vertex="1" parent="1">
          <mxGeometry x="-373" y="3480" width="193" height="86" as="geometry" />
        </mxCell>
        <mxCell id="SUiiR8tl3ieN-L8OfsxM-240" value="setAlarmNotification()" style="text;html=1;align=center;verticalAlign=middle;resizable=0;points=[];autosize=1;strokeColor=none;fillColor=none;" vertex="1" parent="SUiiR8tl3ieN-L8OfsxM-214">
          <mxGeometry y="26" width="193" height="30" as="geometry" />
        </mxCell>
        <mxCell id="SUiiR8tl3ieN-L8OfsxM-241" value="..." style="text;html=1;align=center;verticalAlign=middle;resizable=0;points=[];autosize=1;strokeColor=none;fillColor=none;" vertex="1" parent="SUiiR8tl3ieN-L8OfsxM-214">
          <mxGeometry y="56" width="193" height="30" as="geometry" />
        </mxCell>
        <mxCell id="SUiiR8tl3ieN-L8OfsxM-249" style="edgeStyle=orthogonalEdgeStyle;rounded=0;orthogonalLoop=1;jettySize=auto;html=1;entryX=0.456;entryY=0.933;entryDx=0;entryDy=0;entryPerimeter=0;" edge="1" parent="1" source="SUiiR8tl3ieN-L8OfsxM-214" target="SUiiR8tl3ieN-L8OfsxM-209">
          <mxGeometry relative="1" as="geometry">
            <Array as="points">
              <mxPoint x="-276" y="3370" />
              <mxPoint x="-117" y="3370" />
            </Array>
          </mxGeometry>
        </mxCell>
        <mxCell id="SUiiR8tl3ieN-L8OfsxM-251" style="edgeStyle=orthogonalEdgeStyle;rounded=0;orthogonalLoop=1;jettySize=auto;html=1;entryX=0.456;entryY=1.033;entryDx=0;entryDy=0;entryPerimeter=0;exitX=0.5;exitY=0;exitDx=0;exitDy=0;" edge="1" parent="1" source="SUiiR8tl3ieN-L8OfsxM-253" target="SUiiR8tl3ieN-L8OfsxM-209">
          <mxGeometry relative="1" as="geometry">
            <mxPoint x="-45" y="3460" as="sourcePoint" />
            <Array as="points">
              <mxPoint x="-45" y="3370" />
              <mxPoint x="-117" y="3370" />
            </Array>
          </mxGeometry>
        </mxCell>
        <mxCell id="SUiiR8tl3ieN-L8OfsxM-252" value="use in" style="edgeLabel;html=1;align=center;verticalAlign=middle;resizable=0;points=[];" vertex="1" connectable="0" parent="SUiiR8tl3ieN-L8OfsxM-251">
          <mxGeometry x="0.6475" y="3" relative="1" as="geometry">
            <mxPoint as="offset" />
          </mxGeometry>
        </mxCell>
        <mxCell id="SUiiR8tl3ieN-L8OfsxM-288" style="edgeStyle=orthogonalEdgeStyle;rounded=0;orthogonalLoop=1;jettySize=auto;html=1;entryX=0.25;entryY=1;entryDx=0;entryDy=0;" edge="1" parent="1" source="SUiiR8tl3ieN-L8OfsxM-253" target="SUiiR8tl3ieN-L8OfsxM-120">
          <mxGeometry relative="1" as="geometry">
            <Array as="points">
              <mxPoint x="-45" y="3420" />
              <mxPoint x="-330" y="3420" />
            </Array>
          </mxGeometry>
        </mxCell>
        <mxCell id="SUiiR8tl3ieN-L8OfsxM-289" value="use in" style="edgeLabel;html=1;align=center;verticalAlign=middle;resizable=0;points=[];" vertex="1" connectable="0" parent="SUiiR8tl3ieN-L8OfsxM-288">
          <mxGeometry x="0.8954" y="2" relative="1" as="geometry">
            <mxPoint as="offset" />
          </mxGeometry>
        </mxCell>
        <mxCell id="SUiiR8tl3ieN-L8OfsxM-253" value="&lt;b style=&quot;border-color: var(--border-color); color: rgb(0, 51, 102); background-color: initial;&quot;&gt;&lt;u style=&quot;border-color: var(--border-color);&quot;&gt;NotificationListenHelper&lt;/u&gt;&lt;/b&gt;" style="swimlane;fontStyle=1;align=center;verticalAlign=top;childLayout=stackLayout;horizontal=1;startSize=26;horizontalStack=0;resizeParent=1;resizeParentMax=0;resizeLast=0;collapsible=1;marginBottom=0;whiteSpace=wrap;html=1;" vertex="1" parent="1">
          <mxGeometry x="-145" y="3484" width="200" height="116" as="geometry" />
        </mxCell>
        <mxCell id="SUiiR8tl3ieN-L8OfsxM-254" value="&lt;b style=&quot;border-color: var(--border-color); background-color: initial; color: rgb(0, 51, 102);&quot;&gt;&lt;u style=&quot;border-color: var(--border-color);&quot;&gt;ISubNotify&lt;/u&gt;&lt;/b&gt;" style="text;html=1;align=center;verticalAlign=middle;resizable=0;points=[];autosize=1;strokeColor=none;fillColor=none;" vertex="1" parent="SUiiR8tl3ieN-L8OfsxM-253">
          <mxGeometry y="26" width="200" height="30" as="geometry" />
        </mxCell>
        <mxCell id="SUiiR8tl3ieN-L8OfsxM-255" value="&lt;b style=&quot;border-color: var(--border-color); background-color: initial; color: rgb(0, 51, 102);&quot;&gt;&lt;u style=&quot;border-color: var(--border-color);&quot;&gt;INotify&lt;/u&gt;&lt;/b&gt;" style="text;html=1;align=center;verticalAlign=middle;resizable=0;points=[];autosize=1;strokeColor=none;fillColor=none;" vertex="1" parent="SUiiR8tl3ieN-L8OfsxM-253">
          <mxGeometry y="56" width="200" height="30" as="geometry" />
        </mxCell>
        <mxCell id="SUiiR8tl3ieN-L8OfsxM-256" value="&lt;b style=&quot;border-color: var(--border-color); color: rgb(0, 51, 102);&quot;&gt;&lt;u style=&quot;border-color: var(--border-color);&quot;&gt;IWindow&lt;/u&gt;&lt;/b&gt;" style="text;html=1;align=center;verticalAlign=middle;resizable=0;points=[];autosize=1;strokeColor=none;fillColor=none;" vertex="1" parent="SUiiR8tl3ieN-L8OfsxM-253">
          <mxGeometry y="86" width="200" height="30" as="geometry" />
        </mxCell>
        <mxCell id="SUiiR8tl3ieN-L8OfsxM-265" style="edgeStyle=orthogonalEdgeStyle;rounded=0;orthogonalLoop=1;jettySize=auto;html=1;entryX=0.005;entryY=0.667;entryDx=0;entryDy=0;entryPerimeter=0;" edge="1" parent="1" source="SUiiR8tl3ieN-L8OfsxM-213" target="SUiiR8tl3ieN-L8OfsxM-240">
          <mxGeometry relative="1" as="geometry">
            <Array as="points">
              <mxPoint x="-520" y="3526" />
            </Array>
          </mxGeometry>
        </mxCell>
        <mxCell id="SUiiR8tl3ieN-L8OfsxM-267" value="use in" style="edgeLabel;html=1;align=center;verticalAlign=middle;resizable=0;points=[];" vertex="1" connectable="0" parent="SUiiR8tl3ieN-L8OfsxM-265">
          <mxGeometry x="0.2975" relative="1" as="geometry">
            <mxPoint as="offset" />
          </mxGeometry>
        </mxCell>
        <mxCell id="SUiiR8tl3ieN-L8OfsxM-271" style="edgeStyle=orthogonalEdgeStyle;rounded=0;orthogonalLoop=1;jettySize=auto;html=1;entryX=0.531;entryY=1.033;entryDx=0;entryDy=0;entryPerimeter=0;" edge="1" parent="1" source="SUiiR8tl3ieN-L8OfsxM-213" target="SUiiR8tl3ieN-L8OfsxM-204">
          <mxGeometry relative="1" as="geometry">
            <Array as="points">
              <mxPoint x="-520" y="3720" />
              <mxPoint x="575" y="3720" />
            </Array>
          </mxGeometry>
        </mxCell>
        <mxCell id="SUiiR8tl3ieN-L8OfsxM-272" value="use in" style="edgeLabel;html=1;align=center;verticalAlign=middle;resizable=0;points=[];" vertex="1" connectable="0" parent="SUiiR8tl3ieN-L8OfsxM-271">
          <mxGeometry x="0.8439" y="-1" relative="1" as="geometry">
            <mxPoint as="offset" />
          </mxGeometry>
        </mxCell>
        <mxCell id="SUiiR8tl3ieN-L8OfsxM-273" style="edgeStyle=orthogonalEdgeStyle;rounded=0;orthogonalLoop=1;jettySize=auto;html=1;entryX=0.906;entryY=1.1;entryDx=0;entryDy=0;entryPerimeter=0;" edge="1" parent="1" source="SUiiR8tl3ieN-L8OfsxM-213" target="SUiiR8tl3ieN-L8OfsxM-198">
          <mxGeometry relative="1" as="geometry">
            <Array as="points">
              <mxPoint x="-520" y="3720" />
              <mxPoint x="115" y="3720" />
            </Array>
          </mxGeometry>
        </mxCell>
        <mxCell id="SUiiR8tl3ieN-L8OfsxM-274" value="use in" style="edgeLabel;html=1;align=center;verticalAlign=middle;resizable=0;points=[];" vertex="1" connectable="0" parent="SUiiR8tl3ieN-L8OfsxM-273">
          <mxGeometry x="0.878" y="-1" relative="1" as="geometry">
            <mxPoint as="offset" />
          </mxGeometry>
        </mxCell>
        <mxCell id="SUiiR8tl3ieN-L8OfsxM-275" style="edgeStyle=orthogonalEdgeStyle;rounded=0;orthogonalLoop=1;jettySize=auto;html=1;entryX=0.5;entryY=1;entryDx=0;entryDy=0;" edge="1" parent="1" source="SUiiR8tl3ieN-L8OfsxM-241" target="SUiiR8tl3ieN-L8OfsxM-141">
          <mxGeometry relative="1" as="geometry">
            <Array as="points">
              <mxPoint x="-276" y="3780" />
              <mxPoint x="660" y="3780" />
            </Array>
          </mxGeometry>
        </mxCell>
        <mxCell id="SUiiR8tl3ieN-L8OfsxM-276" value="use in" style="edgeLabel;html=1;align=center;verticalAlign=middle;resizable=0;points=[];" vertex="1" connectable="0" parent="SUiiR8tl3ieN-L8OfsxM-275">
          <mxGeometry x="0.9311" y="-4" relative="1" as="geometry">
            <mxPoint y="1" as="offset" />
          </mxGeometry>
        </mxCell>
        <mxCell id="SUiiR8tl3ieN-L8OfsxM-277" style="edgeStyle=orthogonalEdgeStyle;rounded=0;orthogonalLoop=1;jettySize=auto;html=1;entryX=0.744;entryY=0.967;entryDx=0;entryDy=0;entryPerimeter=0;" edge="1" parent="1" source="SUiiR8tl3ieN-L8OfsxM-214" target="SUiiR8tl3ieN-L8OfsxM-198">
          <mxGeometry relative="1" as="geometry">
            <Array as="points">
              <mxPoint x="-276" y="3690" />
              <mxPoint x="89" y="3690" />
            </Array>
          </mxGeometry>
        </mxCell>
        <mxCell id="SUiiR8tl3ieN-L8OfsxM-279" value="use in" style="edgeLabel;html=1;align=center;verticalAlign=middle;resizable=0;points=[];" vertex="1" connectable="0" parent="SUiiR8tl3ieN-L8OfsxM-277">
          <mxGeometry x="0.9019" y="1" relative="1" as="geometry">
            <mxPoint y="1" as="offset" />
          </mxGeometry>
        </mxCell>
        <mxCell id="SUiiR8tl3ieN-L8OfsxM-281" style="edgeStyle=orthogonalEdgeStyle;rounded=0;orthogonalLoop=1;jettySize=auto;html=1;entryX=1.006;entryY=0.067;entryDx=0;entryDy=0;entryPerimeter=0;" edge="1" parent="1" source="SUiiR8tl3ieN-L8OfsxM-172" target="SUiiR8tl3ieN-L8OfsxM-210">
          <mxGeometry relative="1" as="geometry" />
        </mxCell>
        <mxCell id="SUiiR8tl3ieN-L8OfsxM-282" value="use in" style="edgeLabel;html=1;align=center;verticalAlign=middle;resizable=0;points=[];" vertex="1" connectable="0" parent="SUiiR8tl3ieN-L8OfsxM-281">
          <mxGeometry x="0.333" y="-3" relative="1" as="geometry">
            <mxPoint as="offset" />
          </mxGeometry>
        </mxCell>
        <mxCell id="SUiiR8tl3ieN-L8OfsxM-285" style="edgeStyle=orthogonalEdgeStyle;rounded=0;orthogonalLoop=1;jettySize=auto;html=1;entryX=0.856;entryY=1.133;entryDx=0;entryDy=0;entryPerimeter=0;" edge="1" parent="1" source="SUiiR8tl3ieN-L8OfsxM-241" target="SUiiR8tl3ieN-L8OfsxM-203">
          <mxGeometry relative="1" as="geometry">
            <Array as="points">
              <mxPoint x="-276" y="3740" />
              <mxPoint x="332" y="3740" />
            </Array>
          </mxGeometry>
        </mxCell>
        <mxCell id="SUiiR8tl3ieN-L8OfsxM-286" value="use in" style="edgeLabel;html=1;align=center;verticalAlign=middle;resizable=0;points=[];" vertex="1" connectable="0" parent="SUiiR8tl3ieN-L8OfsxM-285">
          <mxGeometry x="0.8448" y="2" relative="1" as="geometry">
            <mxPoint y="-1" as="offset" />
          </mxGeometry>
        </mxCell>
        <mxCell id="SUiiR8tl3ieN-L8OfsxM-301" style="edgeStyle=orthogonalEdgeStyle;rounded=0;orthogonalLoop=1;jettySize=auto;html=1;" edge="1" parent="1" source="SUiiR8tl3ieN-L8OfsxM-291" target="SUiiR8tl3ieN-L8OfsxM-292">
          <mxGeometry relative="1" as="geometry" />
        </mxCell>
        <mxCell id="SUiiR8tl3ieN-L8OfsxM-291" value="&lt;b style=&quot;border-color: var(--border-color); background-color: initial; color: rgb(0, 51, 102);&quot;&gt;&lt;u style=&quot;border-color: var(--border-color);&quot;&gt;NotificationRecordManager&lt;/u&gt;&lt;/b&gt;" style="rounded=1;whiteSpace=wrap;html=1;" vertex="1" parent="1">
          <mxGeometry x="-613" y="3880" width="200" height="60" as="geometry" />
        </mxCell>
        <mxCell id="SUiiR8tl3ieN-L8OfsxM-297" style="edgeStyle=orthogonalEdgeStyle;rounded=0;orthogonalLoop=1;jettySize=auto;html=1;entryX=0.5;entryY=0;entryDx=0;entryDy=0;" edge="1" parent="1" source="SUiiR8tl3ieN-L8OfsxM-292" target="SUiiR8tl3ieN-L8OfsxM-293">
          <mxGeometry relative="1" as="geometry" />
        </mxCell>
        <mxCell id="SUiiR8tl3ieN-L8OfsxM-292" value="&lt;b style=&quot;border-color: var(--border-color); background-color: initial; color: rgb(0, 51, 102);&quot;&gt;&lt;u style=&quot;border-color: var(--border-color);&quot;&gt;NotificationListenHelper&lt;/u&gt;&lt;/b&gt;" style="rounded=1;whiteSpace=wrap;html=1;" vertex="1" parent="1">
          <mxGeometry x="-613" y="3990" width="200" height="60" as="geometry" />
        </mxCell>
        <mxCell id="SUiiR8tl3ieN-L8OfsxM-298" style="edgeStyle=orthogonalEdgeStyle;rounded=0;orthogonalLoop=1;jettySize=auto;html=1;" edge="1" parent="1" source="SUiiR8tl3ieN-L8OfsxM-293" target="SUiiR8tl3ieN-L8OfsxM-294">
          <mxGeometry relative="1" as="geometry" />
        </mxCell>
        <mxCell id="SUiiR8tl3ieN-L8OfsxM-293" value="FloatWindowService" style="rounded=1;whiteSpace=wrap;html=1;" vertex="1" parent="1">
          <mxGeometry x="-618" y="4092" width="210" height="60" as="geometry" />
        </mxCell>
        <mxCell id="SUiiR8tl3ieN-L8OfsxM-299" style="edgeStyle=orthogonalEdgeStyle;rounded=0;orthogonalLoop=1;jettySize=auto;html=1;" edge="1" parent="1" source="SUiiR8tl3ieN-L8OfsxM-294" target="SUiiR8tl3ieN-L8OfsxM-295">
          <mxGeometry relative="1" as="geometry" />
        </mxCell>
        <mxCell id="SUiiR8tl3ieN-L8OfsxM-294" value="&lt;b style=&quot;border-color: var(--border-color); color: rgb(0, 51, 102);&quot;&gt;&lt;u style=&quot;border-color: var(--border-color);&quot;&gt;NotificationWindow&lt;/u&gt;&lt;/b&gt;" style="rounded=1;whiteSpace=wrap;html=1;" vertex="1" parent="1">
          <mxGeometry x="-618" y="4210" width="210" height="60" as="geometry" />
        </mxCell>
        <mxCell id="SUiiR8tl3ieN-L8OfsxM-300" style="edgeStyle=orthogonalEdgeStyle;rounded=0;orthogonalLoop=1;jettySize=auto;html=1;entryX=0.5;entryY=0;entryDx=0;entryDy=0;" edge="1" parent="1" source="SUiiR8tl3ieN-L8OfsxM-295" target="SUiiR8tl3ieN-L8OfsxM-296">
          <mxGeometry relative="1" as="geometry" />
        </mxCell>
        <mxCell id="SUiiR8tl3ieN-L8OfsxM-295" value="&lt;b style=&quot;border-color: var(--border-color); color: rgb(0, 51, 102);&quot;&gt;&lt;u style=&quot;border-color: var(--border-color);&quot;&gt;NotificationDragView&lt;/u&gt;&lt;/b&gt;" style="rounded=1;whiteSpace=wrap;html=1;" vertex="1" parent="1">
          <mxGeometry x="-618" y="4320" width="210" height="60" as="geometry" />
        </mxCell>
        <mxCell id="SUiiR8tl3ieN-L8OfsxM-296" value="&lt;b style=&quot;border-color: var(--border-color); color: rgb(0, 51, 102);&quot;&gt;&lt;u style=&quot;border-color: var(--border-color);&quot;&gt;NotificationRecycleView&lt;/u&gt;&lt;/b&gt;" style="rounded=1;whiteSpace=wrap;html=1;" vertex="1" parent="1">
          <mxGeometry x="-618" y="4430" width="210" height="60" as="geometry" />
        </mxCell>
        <mxCell id="SUiiR8tl3ieN-L8OfsxM-303" style="edgeStyle=orthogonalEdgeStyle;rounded=0;orthogonalLoop=1;jettySize=auto;html=1;" edge="1" parent="1" source="SUiiR8tl3ieN-L8OfsxM-302" target="SUiiR8tl3ieN-L8OfsxM-291">
          <mxGeometry relative="1" as="geometry" />
        </mxCell>
        <mxCell id="SUiiR8tl3ieN-L8OfsxM-302" value="&lt;b style=&quot;border-color: var(--border-color); background-color: initial; color: rgb(0, 51, 102);&quot;&gt;&lt;u style=&quot;border-color: var(--border-color);&quot;&gt;NotificationListener&lt;/u&gt;&lt;/b&gt;" style="rounded=1;whiteSpace=wrap;html=1;" vertex="1" parent="1">
          <mxGeometry x="-613" y="3770" width="200" height="60" as="geometry" />
        </mxCell>
        <mxCell id="SUiiR8tl3ieN-L8OfsxM-306" style="edgeStyle=orthogonalEdgeStyle;rounded=0;orthogonalLoop=1;jettySize=auto;html=1;entryX=0.995;entryY=0.3;entryDx=0;entryDy=0;entryPerimeter=0;" edge="1" parent="1" source="SUiiR8tl3ieN-L8OfsxM-256" target="SUiiR8tl3ieN-L8OfsxM-305">
          <mxGeometry relative="1" as="geometry">
            <Array as="points">
              <mxPoint x="-45" y="3635" />
            </Array>
          </mxGeometry>
        </mxCell>
        <mxCell id="SUiiR8tl3ieN-L8OfsxM-307" value="use&amp;nbsp; in" style="edgeLabel;html=1;align=center;verticalAlign=middle;resizable=0;points=[];" vertex="1" connectable="0" parent="SUiiR8tl3ieN-L8OfsxM-306">
          <mxGeometry x="0.7664" y="-1" relative="1" as="geometry">
            <mxPoint as="offset" />
          </mxGeometry>
        </mxCell>
        <mxCell id="SUiiR8tl3ieN-L8OfsxM-308" value="数据流" style="text;html=1;align=center;verticalAlign=middle;resizable=0;points=[];autosize=1;strokeColor=none;fillColor=none;" vertex="1" parent="1">
          <mxGeometry x="-650" y="3740" width="60" height="30" as="geometry" />
        </mxCell>
        <mxCell id="SUiiR8tl3ieN-L8OfsxM-310" style="edgeStyle=orthogonalEdgeStyle;rounded=0;orthogonalLoop=1;jettySize=auto;html=1;" edge="1" parent="1" source="SUiiR8tl3ieN-L8OfsxM-309" target="SUiiR8tl3ieN-L8OfsxM-291">
          <mxGeometry relative="1" as="geometry" />
        </mxCell>
        <mxCell id="SUiiR8tl3ieN-L8OfsxM-311" style="edgeStyle=orthogonalEdgeStyle;rounded=0;orthogonalLoop=1;jettySize=auto;html=1;" edge="1" parent="1" source="SUiiR8tl3ieN-L8OfsxM-309">
          <mxGeometry relative="1" as="geometry">
            <mxPoint x="710" y="2960" as="targetPoint" />
          </mxGeometry>
        </mxCell>
        <mxCell id="SUiiR8tl3ieN-L8OfsxM-312" style="edgeStyle=orthogonalEdgeStyle;rounded=0;orthogonalLoop=1;jettySize=auto;html=1;entryX=1;entryY=0.5;entryDx=0;entryDy=0;" edge="1" parent="1" source="SUiiR8tl3ieN-L8OfsxM-309" target="SUiiR8tl3ieN-L8OfsxM-293">
          <mxGeometry relative="1" as="geometry" />
        </mxCell>
        <mxCell id="SUiiR8tl3ieN-L8OfsxM-309" value="&lt;b style=&quot;border-color: var(--border-color); background-color: initial; color: rgb(0, 51, 102);&quot;&gt;&lt;u style=&quot;border-color: var(--border-color);&quot;&gt;NotificationTimer&lt;/u&gt;&lt;/b&gt;" style="rounded=1;whiteSpace=wrap;html=1;" vertex="1" parent="1">
          <mxGeometry x="-260" y="3880" width="200" height="60" as="geometry" />
        </mxCell>
      </root>
    </mxGraphModel>
  </diagram>
</mxfile>
